<svg width="76" height="76" viewBox="0 0 76 76" fill="none" xmlns="http://www.w3.org/2000/svg">
<path fill-rule="evenodd" clip-rule="evenodd" d="M38 76C17.0132 76 0 58.9868 0 38C0 17.0132 17.0132 0 38 0C58.9868 0 76 17.0132 76 38C76 58.9868 58.9868 76 38 76ZM38.7398 60.3814C42.2743 60.3814 56.2816 44.4954 56.2816 33.8448C56.2816 23.6498 48.3154 15.2 38.7398 15.2C28.6627 15.2 20.6969 23.6498 20.6969 33.8448C20.6969 44.4954 34.7042 60.3814 38.7398 60.3814ZM29.9799 26.304L29.98 26.2687C28.5173 28.1322 27.659 30.4995 27.659 33.1195C27.659 38.7343 32.5077 43.5339 38.7988 43.5339C44.4704 43.5339 49.3195 38.7343 49.3195 33.1195C49.3195 26.8921 44.4704 22.0921 38.7988 22.0921C37.802 22.0921 36.8415 22.2125 35.9308 22.4401C37.4363 23.0888 38.489 24.5746 38.489 26.304C38.489 28.6301 36.5842 30.5156 34.2345 30.5156C31.8848 30.5156 29.9799 28.6301 29.9799 26.304Z" fill="black"/>
</svg>
