<svg width="76" height="76" viewBox="0 0 76 76" fill="none" xmlns="http://www.w3.org/2000/svg">
<path fill-rule="evenodd" clip-rule="evenodd" d="M38 76C17.0132 76 0 58.9868 0 38C0 17.0132 17.0132 0 38 0C58.9868 0 76 17.0132 76 38C76 58.9868 58.9868 76 38 76ZM37.9992 36.4167C34.9109 36.4167 19 26.9587 19 26.9587V25.4818C19 23.6519 20.4168 22.1667 22.1657 22.1667H53.8327C55.5832 22.1667 57 23.6519 57 25.4818L56.9747 27.1394C56.9747 27.1394 41.2361 36.4167 37.9992 36.4167ZM56.9747 31.6667C56.9747 31.6667 41.3848 40.1326 37.9992 40.1326C34.9109 40.1326 19.0237 31.6667 19.0253 31.6667L19 50.6667C19 52.4147 20.4184 53.8333 22.1657 53.8333H53.8327C55.5832 53.8333 57 52.4147 57 50.6667L56.9747 31.6667Z" fill="black"/>
</svg>
