<svg width="76" height="76" viewBox="0 0 76 76" fill="none" xmlns="http://www.w3.org/2000/svg">
<path fill-rule="evenodd" clip-rule="evenodd" d="M38 0C17.0132 0 0 17.0132 0 38C0 58.9868 17.0132 76 38 76C58.9868 76 76 58.9868 76 38C76 17.0132 58.9868 0 38 0ZM26.5806 19C26.6931 19.0892 26.7822 19.0892 26.8714 19.0776C27.3329 19.0388 27.7284 19.1512 27.9843 19.5739C28.0295 19.6472 28.0747 19.7204 28.1199 19.7937C28.649 20.6512 29.179 21.5102 29.6827 22.389C30.0474 23.0244 30.3952 23.67 30.7434 24.3164C30.9988 24.7903 31.2543 25.2646 31.5168 25.7354C31.6184 25.9263 31.7454 26.106 31.8724 26.2858C31.9441 26.3873 32.0158 26.4888 32.083 26.5924C32.2448 26.8498 32.3996 27.1142 32.5508 27.3724L32.5754 27.4144C32.9011 28.031 32.8856 28.6514 32.4009 29.1438C31.8907 29.6655 31.3423 30.1597 30.795 30.6529C30.6019 30.8269 30.4089 31.0008 30.2178 31.1757C29.9802 31.3938 29.7391 31.6083 29.4981 31.8228C29.1177 32.1613 28.7376 32.4995 28.3721 32.8508C27.9068 33.3007 27.7866 33.8629 28.1006 34.4562C28.1297 34.5107 28.1588 34.5651 28.1879 34.6196C28.6433 35.4724 29.0981 36.3242 29.5974 37.1589C31.5672 40.4432 34.0838 43.2351 37.2634 45.3872C38.4888 46.2209 39.7645 46.9848 41.0519 47.7138C42.2656 48.4001 42.7386 48.2838 43.6809 47.2329C44.1786 46.6802 44.6662 46.1225 45.1545 45.5641C45.5261 45.1391 45.898 44.7137 46.275 44.2898C46.4844 44.0533 46.7365 43.8439 46.9808 43.6423C47.4771 43.2235 48.02 43.1769 48.59 43.4639C48.6257 43.4813 48.662 43.4984 48.6984 43.5154C48.8241 43.5744 48.9509 43.6339 49.0592 43.7121C50.0703 44.4354 51.1612 45.0166 52.2506 45.5971C52.7906 45.8848 53.3302 46.1723 53.8596 46.4768C54.4054 46.7904 54.9418 47.1182 55.4767 47.4451C55.7817 47.6315 56.0862 47.8176 56.3917 48.0007C56.8454 48.2682 57.0277 48.6599 56.9966 49.1989C56.9113 50.715 56.6593 52.204 55.7791 53.4836C55.4107 54.0149 54.8872 54.4802 54.3599 54.8563C52.898 55.88 51.2655 56.5121 49.5283 56.8998C47.9502 57.2527 46.3758 57.1247 44.8636 56.6517C41.9437 55.752 39.0665 54.7206 36.4181 53.1579C34.014 51.7348 31.827 50.0171 29.8029 48.0976C27.2398 45.6586 24.952 42.9986 23.1024 39.9701C21.8965 38.0042 21.0356 35.887 20.2562 33.7272C19.7831 32.4243 19.3178 31.1331 19.1084 29.7526C18.868 28.19 19.0348 26.6854 19.535 25.2042C19.9848 23.8664 20.547 22.5868 21.3962 21.4429C22.0632 20.5549 22.8969 19.9035 23.9749 19.6127C24.5839 19.4515 25.1969 19.3134 25.8096 19.1754C26.0668 19.1175 26.3239 19.0596 26.5806 19Z" fill="black"/>
</svg>
