<svg width="48" height="48" viewBox="0 0 48 48" fill="none" xmlns="http://www.w3.org/2000/svg">
<path fill-rule="evenodd" clip-rule="evenodd" d="M24 0C10.7452 0 0 10.7452 0 24C0 37.2548 10.7452 48 24 48C37.2548 48 48 37.2548 48 24C48 10.7452 37.2548 0 24 0ZM24.1195 20.041L24.0523 18.9164C23.8507 16.0017 25.6202 13.3394 28.4201 12.3067C29.4505 11.9395 31.1976 11.8936 32.34 12.2149C32.788 12.3526 33.6391 12.8116 34.2439 13.2247L35.3415 13.9821L36.551 13.5919C37.223 13.3853 38.119 13.0411 38.5222 12.8116C38.9029 12.605 39.2389 12.4903 39.2389 12.5591C39.2389 12.9493 38.4102 14.2804 37.7158 15.0148C36.775 16.0476 37.0438 16.1394 38.9477 15.4509C40.0901 15.0607 40.1125 15.0607 39.8885 15.4968C39.7541 15.7263 39.0597 16.5296 38.3206 17.264C37.0662 18.5262 36.999 18.664 36.999 19.7197C36.999 21.3492 36.2374 24.7458 35.4759 26.6048C34.0647 30.0933 31.0408 33.6965 28.0169 35.5096C23.7611 38.0571 18.0941 38.6997 13.323 37.2079C11.7327 36.703 9 35.4178 9 35.1883C9 35.1194 9.82877 35.0276 10.8367 35.0047C12.9423 34.9588 15.0478 34.3621 16.8397 33.3064L18.0493 32.5719L16.6605 32.09C14.6894 31.4015 12.9199 29.8179 12.4719 28.3261C12.3375 27.8441 12.3823 27.8212 13.6366 27.8212L14.9358 27.7982L13.8382 27.2704C12.5391 26.6048 11.3519 25.4802 10.7695 24.3327C10.344 23.5065 9.80637 21.418 9.96317 21.2574C10.008 21.1885 10.4783 21.3262 11.0159 21.5098C12.5615 22.0836 12.7631 21.9459 11.8671 20.9819C10.1872 19.2377 9.67198 16.6443 10.4783 14.1886L10.8591 13.087L12.3375 14.5788C15.3614 17.5853 18.9228 19.3754 22.9995 19.9033L24.1195 20.041Z" fill="#1A1B1F"/>
</svg>
